<?xml version="1.0" encoding="utf-8"?>
<!-- Generator: Adobe Illustrator 25.2.1, SVG Export Plug-In . SVG Version: 6.00 Build 0)  -->
<svg version="1.1" id="Capa_1" xmlns="http://www.w3.org/2000/svg" xmlns:xlink="http://www.w3.org/1999/xlink" x="0px" y="0px"
	 viewBox="0 0 19.6 24" style="enable-background:new 0 0 19.6 24;" xml:space="preserve">
<style type="text/css">
	.st0{fill:#E6E8EF;}
	.st1{fill:#AFB4BC;}
</style>
<path class="st0" d="M19.6,7.2L19.6,7.2L19.6,7.2L19.6,7.2L19.6,7.2C19.6,7.1,19.6,7.1,19.6,7.2c0-0.1,0-0.2-0.1-0.2l0,0l0,0l0,0
	L14,1.4l0,0c-0.1-0.1-0.1-0.1-0.2-0.1l0,0l0,0H2.9C2,1.3,1.2,2,1.2,3v19.3C1.2,23.2,2,24,2.9,24h14.9c0.9,0,1.7-0.8,1.7-1.7
	L19.6,7.2L19.6,7.2z"/>
<path class="st1" d="M18.4,6L18.4,6L18.4,6L18.4,6C18.4,5.9,18.3,5.9,18.4,6C18.4,5.9,18.4,5.9,18.4,6c0-0.1,0-0.2-0.1-0.2l0,0l0,0
	l0,0l-5.5-5.6l0,0C12.7,0,12.7,0,12.6,0l0,0l0,0H1.7C0.8,0,0,0.8,0,1.7V21c0,0.9,0.8,1.7,1.7,1.7h14.9c0.9,0,1.7-0.8,1.7-1.7L18.4,6
	L18.4,6z M12.9,1.2l4.3,4.4h-4.3C12.9,5.6,12.9,1.2,12.9,1.2z M16.6,22.1H1.7c-0.6,0-1-0.5-1-1V1.7c0-0.6,0.5-1,1-1h10.5V6
	c0,0.2,0.2,0.3,0.3,0.3h5.1V21C17.7,21.6,17.2,22.1,16.6,22.1z"/>
</svg>
